<svg width="21" height="20" viewBox="0 0 21 20" fill="none" xmlns="http://www.w3.org/2000/svg">
<path d="M10.2915 2.5C10.6079 2.5 10.8695 2.73501 10.9109 3.04007L10.9167 3.12488L10.9177 9.16667H16.9619C17.3071 9.16667 17.5869 9.4465 17.5869 9.79167C17.5869 10.1081 17.3518 10.3696 17.0468 10.411L16.9619 10.4167H10.9177L10.9193 16.4576C10.9194 16.8028 10.6397 17.0828 10.2945 17.0828C9.97808 17.0828 9.7165 16.8478 9.67508 16.5427L9.66933 16.4578L9.66767 10.4167H3.62683C3.28165 10.4167 3.00183 10.1368 3.00183 9.79167C3.00183 9.47525 3.23696 9.21375 3.54202 9.17233L3.62683 9.16667H9.66767L9.66667 3.12513C9.66658 2.77995 9.94633 2.5 10.2915 2.5Z" fill="white"/>
</svg>
