<svg width="12" height="14" viewBox="0 0 12 14" fill="none" xmlns="http://www.w3.org/2000/svg">
<path d="M10.6607 0.125C10.959 0.125 11.2056 0.346689 11.2447 0.634324L11.25 0.714286V13.2857C11.25 13.6112 10.9862 13.875 10.6607 13.875C10.3624 13.875 10.1158 13.6533 10.0768 13.3657L10.0714 13.2857V9.35714H8.30357C8.00524 9.35714 7.75868 9.13541 7.71963 8.84784L7.71429 8.76786V3.07143C7.71429 1.44416 9.03342 0.125 10.6607 0.125ZM5.94643 0.125C6.24476 0.125 6.49132 0.346689 6.53037 0.634324L6.53571 0.714286V3.85714C6.53571 5.39131 5.43642 6.66874 3.98261 6.94476L3.98214 13.2857C3.98214 13.6112 3.71831 13.875 3.39286 13.875C3.09452 13.875 2.84797 13.6533 2.80895 13.3657L2.80357 13.2857L2.80388 6.94492C1.40159 6.67904 0.328996 5.48161 0.254172 4.02053L0.25 3.85714V0.714286C0.25 0.388835 0.513835 0.125 0.839286 0.125C1.13762 0.125 1.38417 0.346689 1.42319 0.634324L1.42857 0.714286V3.85714C1.42857 4.7368 2.0068 5.48137 2.8039 5.73162L2.80357 0.714286C2.80357 0.388835 3.06741 0.125 3.39286 0.125C3.69119 0.125 3.93774 0.346689 3.97676 0.634324L3.98214 0.714286L3.98259 5.73139C4.73501 5.49481 5.29224 4.8177 5.35188 4.00239L5.35714 3.85714V0.714286C5.35714 0.388835 5.62099 0.125 5.94643 0.125ZM10.0714 8.17857V1.40417C9.42518 1.63258 8.95139 2.22608 8.89788 2.93684L8.89286 3.07143V8.17857H10.0714Z" fill="#212121"/>
</svg>
