<svg width="14" height="18" viewBox="0 0 14 18" fill="none" xmlns="http://www.w3.org/2000/svg">
<path d="M2.83325 4.83329V3.16663C2.83325 1.78592 3.95254 0.666626 5.33325 0.666626C5.97359 0.666626 6.55759 0.907343 6.99992 1.30321C7.44225 0.907334 8.02634 0.666626 8.66659 0.666626C10.0473 0.666626 11.1666 1.78592 11.1666 3.16663V4.83329H12.4166C13.1069 4.83329 13.6666 5.39293 13.6666 6.08329V14.4208C13.6666 16.0293 12.3626 17.3333 10.7541 17.3333H3.66659C1.82564 17.3333 0.333252 15.8409 0.333252 14V6.08329C0.333252 5.39293 0.892894 4.83329 1.58325 4.83329H2.83325ZM8.36242 16.0833C8.03409 15.6119 7.84159 15.0388 7.84159 14.4208V6.08329H1.58325V14C1.58325 15.1505 2.51599 16.0833 3.66659 16.0833H8.36242ZM6.58325 4.83329V3.16663C6.58325 2.47627 6.02359 1.91663 5.33325 1.91663C4.64289 1.91663 4.08325 2.47627 4.08325 3.16663V4.83329H6.58325ZM7.83325 4.83329H9.91659V3.16663C9.91659 2.47627 9.35692 1.91663 8.66659 1.91663C8.27909 1.91663 7.93284 2.09293 7.70359 2.36969C7.78767 2.61998 7.83325 2.88798 7.83325 3.16663V4.83329ZM9.09159 14.4208C9.09159 15.339 9.83592 16.0833 10.7541 16.0833C11.6723 16.0833 12.4166 15.339 12.4166 14.4208V6.08329H9.09159V14.4208Z" fill="#C1AE92"/>
</svg>
