<svg width="20" height="21" viewBox="0 0 20 21" fill="none" xmlns="http://www.w3.org/2000/svg">
<path d="M8 3.58325H12C12 2.47868 11.1046 1.58325 10 1.58325C8.8954 1.58325 8 2.47868 8 3.58325ZM6.5 3.58325C6.5 1.65025 8.067 0.083252 10 0.083252C11.933 0.083252 13.5 1.65025 13.5 3.58325H19.25C19.6642 3.58325 20 3.91904 20 4.33325C20 4.74746 19.6642 5.08325 19.25 5.08325H17.9309L16.7589 17.1945C16.5729 19.1167 14.9575 20.5833 13.0263 20.5833H6.97369C5.04254 20.5833 3.42715 19.1167 3.24113 17.1945L2.06908 5.08325H0.75C0.33579 5.08325 0 4.74746 0 4.33325C0 3.91904 0.33579 3.58325 0.75 3.58325H6.5ZM8.5 8.33325C8.5 7.91904 8.1642 7.58325 7.75 7.58325C7.33579 7.58325 7 7.91904 7 8.33325V15.8333C7 16.2475 7.33579 16.5833 7.75 16.5833C8.1642 16.5833 8.5 16.2475 8.5 15.8333V8.33325ZM12.25 7.58325C12.6642 7.58325 13 7.91904 13 8.33325V15.8333C13 16.2475 12.6642 16.5833 12.25 16.5833C11.8358 16.5833 11.5 16.2475 11.5 15.8333V8.33325C11.5 7.91904 11.8358 7.58325 12.25 7.58325ZM4.73416 17.05C4.84577 18.2033 5.815 19.0833 6.97369 19.0833H13.0263C14.185 19.0833 15.1542 18.2033 15.2658 17.05L16.4239 5.08325H3.57608L4.73416 17.05Z" fill="white"/>
</svg>
