<svg width="11" height="14" viewBox="0 0 11 14" fill="none" xmlns="http://www.w3.org/2000/svg">
<path d="M10.4107 0.125C10.709 0.125 10.9556 0.346689 10.9947 0.634324L11 0.714286V13.2857C11 13.6112 10.7362 13.875 10.4107 13.875C10.1124 13.875 9.86582 13.6533 9.82677 13.3657L9.82143 13.2857V9.35714H8.05357C7.75524 9.35714 7.50868 9.13541 7.46963 8.84784L7.46429 8.76786V3.07143C7.46429 1.44416 8.78342 0.125 10.4107 0.125ZM5.69643 0.125C5.99476 0.125 6.24132 0.346689 6.28037 0.634324L6.28571 0.714286V3.85714C6.28571 5.39131 5.18642 6.66874 3.73261 6.94476L3.73214 13.2857C3.73214 13.6112 3.46831 13.875 3.14286 13.875C2.84452 13.875 2.59797 13.6533 2.55895 13.3657L2.55357 13.2857L2.55388 6.94492C1.15159 6.67904 0.0789958 5.48161 0.00417219 4.02053L0 3.85714V0.714286C0 0.388835 0.263835 0.125 0.589286 0.125C0.887621 0.125 1.13417 0.346689 1.17319 0.634324L1.17857 0.714286V3.85714C1.17857 4.7368 1.7568 5.48137 2.5539 5.73162L2.55357 0.714286C2.55357 0.388835 2.81741 0.125 3.14286 0.125C3.44119 0.125 3.68774 0.346689 3.72676 0.634324L3.73214 0.714286L3.73259 5.73139C4.48501 5.49481 5.04224 4.8177 5.10188 4.00239L5.10714 3.85714V0.714286C5.10714 0.388835 5.37099 0.125 5.69643 0.125ZM9.82143 8.17857V1.40417C9.17518 1.63258 8.70139 2.22608 8.64788 2.93684L8.64286 3.07143V8.17857H9.82143Z" fill="#212121"/>
</svg>
