<svg width="20" height="20" viewBox="0 0 20 20" fill="none" xmlns="http://www.w3.org/2000/svg">
<path d="M18.3232 1.6768C18.5589 1.91254 18.5589 2.29473 18.3232 2.53046L12.7469 8.10685C14.1433 9.92159 14.0102 12.5346 12.3476 14.1971L11.6784 14.8664L9.43518 18.2312C9.3349 18.3817 9.1724 18.4792 8.99244 18.4971C8.81247 18.5149 8.63396 18.4511 8.50607 18.3232L1.6768 11.4939C1.54892 11.366 1.48512 11.1875 1.50294 11.0076C1.52076 10.8276 1.61833 10.6651 1.7688 10.5648L5.1338 8.32149L5.80284 7.65244C7.46546 5.98983 10.0784 5.85674 11.8932 7.25319L17.4696 1.6768C17.7053 1.44107 18.0875 1.44107 18.3232 1.6768ZM6.37196 8.79063L11.2094 13.628L11.494 13.3435C12.8298 12.0077 12.8298 9.84191 11.494 8.50612C10.1581 7.17029 7.99233 7.17029 6.65651 8.50612L6.37196 8.79063ZM5.44137 9.56738L3.05111 11.1609L8.83911 16.9489L10.4326 14.5586L5.44137 9.56738Z" fill="#212121"/>
</svg>
