<svg width="20" height="20" viewBox="0 0 20 20" fill="none" xmlns="http://www.w3.org/2000/svg">
<path d="M14.9107 3.125C15.209 3.125 15.4556 3.34669 15.4947 3.63432L15.5 3.71429V16.2857C15.5 16.6112 15.2362 16.875 14.9107 16.875C14.6124 16.875 14.3658 16.6533 14.3268 16.3657L14.3214 16.2857V12.3571H12.5536C12.2552 12.3571 12.0087 12.1354 11.9696 11.8478L11.9643 11.7679V6.07143C11.9643 4.44416 13.2834 3.125 14.9107 3.125ZM10.1964 3.125C10.4948 3.125 10.7413 3.34669 10.7804 3.63432L10.7857 3.71429V6.85714C10.7857 8.39131 9.68642 9.66874 8.23261 9.94476L8.23214 16.2857C8.23214 16.6112 7.96831 16.875 7.64286 16.875C7.34452 16.875 7.09797 16.6533 7.05895 16.3657L7.05357 16.2857L7.05388 9.94492C5.65159 9.67904 4.579 8.48161 4.50417 7.02053L4.5 6.85714V3.71429C4.5 3.38884 4.76384 3.125 5.08929 3.125C5.38762 3.125 5.63417 3.34669 5.67319 3.63432L5.67857 3.71429V6.85714C5.67857 7.7368 6.2568 8.48137 7.0539 8.73162L7.05357 3.71429C7.05357 3.38884 7.31741 3.125 7.64286 3.125C7.94119 3.125 8.18774 3.34669 8.22676 3.63432L8.23214 3.71429L8.23259 8.73139C8.98501 8.49481 9.54224 7.8177 9.60188 7.00239L9.60714 6.85714V3.71429C9.60714 3.38884 9.87099 3.125 10.1964 3.125ZM14.3214 11.1786V4.40417C13.6752 4.63258 13.2014 5.22608 13.1479 5.93684L13.1429 6.07143V11.1786H14.3214Z" fill="white"/>
</svg>
